<svg width="51" height="51" fill="none" xmlns="http://www.w3.org/2000/svg">
    <rect width="51" height="51" rx="10.2" fill="#BAFAEE" />
    <path
        d="M5.162 27.446c.17.194.34.389.534.559 1.677 1.677 3.33 3.355 5.007 5.032.34.34.705.705 1.143.924.437.218.972.291 1.41.048.437-.243.68-.778.68-1.288s-.194-.997-.438-1.434c-1.02-1.848-2.868-3.063-4.107-4.765-.268-.365-.535-.827-.462-1.289.049-.34.292-.632.51-.899a38.226 38.226 0 0 1 5.105-5.008c.534-.437 1.142-1.02.972-1.677-.122-.462-.632-.754-1.118-.802-1.774-.122-3.719 1.215-4.91 2.406-.778.778-1.483 1.605-2.236 2.383-.705.729-1.531 1.337-2.188 2.115-.462.559-.802 1.288-.729 1.993.049.656.389 1.215.827 1.702Z"
        fill="#4F9D91" />
    <path
        d="M32.991 14.389c.944.421 1.415.954 1.415 1.598 0 .632-.194 1.165-.582 1.598-.378.433-.76.649-1.149.649-.377 0-1.243-.25-2.597-.75-1.342-.499-2.358-.748-3.046-.748-1.132 0-2.009.327-2.63.982-.621.644-.932 1.454-.932 2.43 0 .688.438 1.354 1.315 1.998.31.233 1.31.749 2.996 1.548 1.687.799 2.852 1.504 3.496 2.114 1.154 1.099 1.731 2.508 1.731 4.228 0 1.054-.222 2.025-.666 2.913-.899 1.787-2.358 3.08-4.378 3.879a9.677 9.677 0 0 1-3.612.682h-.533c-1.886 0-3.573-.316-5.06-.949-1.476-.632-2.214-1.315-2.214-2.047 0-.588.205-1.127.616-1.615.422-.488.904-.732 1.448-.732.555 0 1.443.333 2.663.999 1.221.654 2.375.982 3.463.982s2.047-.311 2.88-.933c.832-.621 1.248-1.437 1.248-2.447 0-1.02-.433-1.864-1.298-2.53-.455-.344-1.548-.91-3.28-1.698-1.73-.799-2.98-1.63-3.745-2.496-.755-.877-1.132-2.12-1.132-3.73 0-.832.205-1.658.616-2.48.888-1.764 2.336-3.024 4.345-3.778a8.605 8.605 0 0 1 3.03-.566h1.098c1.676 0 3.174.3 4.494.899Z"
        fill="#37635F" />
    <path
        d="M45.79 23.446c-.17-.194-.365-.389-.535-.559-1.701-1.677-3.427-3.355-5.129-5.032-.364-.34-.704-.705-1.166-.924-.462-.218-.997-.291-1.434-.048-.438.243-.68.778-.68 1.313 0 .534.194.996.461 1.458 1.045 1.848 2.941 3.063 4.23 4.765.29.389.558.826.485 1.288-.048.34-.267.657-.51.924a37.695 37.695 0 0 1-5.104 5.13c-.535.437-1.143 1.045-.973 1.701.122.486.657.754 1.143.802 1.798.097 3.767-1.288 4.934-2.48.778-.777 1.483-1.628 2.236-2.43.705-.754 1.531-1.386 2.188-2.164.462-.583.802-1.313.729-2.042-.049-.68-.438-1.215-.875-1.702Z"
        fill="#4F9D91" />
</svg>