<svg width="56" height="56" viewBox="0 0 56 56" fill="none" xmlns="http://www.w3.org/2000/svg">
<rect x="1.57273" y="1.57273" width="52.8545" height="52.8545" rx="11.1273" fill="#000091"/>
<rect x="1.57273" y="1.57273" width="52.8545" height="52.8545" rx="11.1273" stroke="#DDDDDD" stroke-width="1.85455"/>
<path d="M7.66159 29.9456C7.8317 30.1401 8.00186 30.3346 8.19629 30.5047C9.87339 32.1821 11.5262 33.8595 13.2033 35.5368C13.5436 35.8772 13.9082 36.2418 14.3457 36.4606C14.7832 36.6794 15.3179 36.7523 15.7555 36.5092C16.1929 36.2661 16.436 35.7313 16.436 35.2208C16.436 34.7103 16.2416 34.2241 15.9985 33.7865C14.9777 31.939 13.1304 30.7235 11.8908 29.0218C11.6234 28.6572 11.3561 28.1953 11.429 27.7334C11.4776 27.3931 11.7206 27.1014 11.9394 26.8339C13.4707 25.0107 15.1964 23.3334 17.0437 21.8262C17.5784 21.3886 18.1861 20.8051 18.0159 20.1488C17.8944 19.6869 17.3839 19.3952 16.8978 19.3466C15.1235 19.225 13.179 20.5621 11.988 21.7532C11.2102 22.5311 10.5054 23.3577 9.75189 24.1356C9.04703 24.8649 8.22062 25.4726 7.56433 26.2505C7.10251 26.8097 6.76225 27.5389 6.83518 28.2439C6.88379 28.9003 7.22406 29.4594 7.66159 29.9456Z" fill="#C1C1FB"/>
<path d="M35.4914 16.8891C36.4347 17.3108 36.9064 17.8435 36.9064 18.4872C36.9064 19.1197 36.7122 19.6524 36.3238 20.0852C35.9464 20.518 35.5636 20.7344 35.1752 20.7344C34.7979 20.7344 33.9323 20.4847 32.5784 19.9853C31.2356 19.4859 30.2202 19.2362 29.5321 19.2362C28.4002 19.2362 27.5235 19.5636 26.902 20.2184C26.2806 20.862 25.9698 21.6721 25.9698 22.6487C25.9698 23.3367 26.4082 24.0026 27.2849 24.6462C27.5956 24.8793 28.5944 25.3953 30.2812 26.1943C31.968 26.9933 33.1332 27.698 33.7769 28.3084C34.931 29.407 35.5081 30.8164 35.5081 32.5365C35.5081 33.5908 35.2861 34.5618 34.8422 35.4496C33.9434 37.2363 32.484 38.5291 30.4643 39.3281C29.3213 39.7831 28.1172 40.0106 26.8521 40.0106H26.3194C24.4329 40.0106 22.746 39.6944 21.259 39.0618C19.783 38.4293 19.045 37.7468 19.045 37.0143C19.045 36.4262 19.2503 35.8879 19.661 35.3997C20.0827 34.9114 20.5654 34.6672 21.1092 34.6672C21.664 34.6672 22.5518 35.0001 23.7726 35.666C24.9933 36.3207 26.1474 36.6481 27.235 36.6481C28.3225 36.6481 29.2824 36.3374 30.1147 35.7159C30.947 35.0945 31.3632 34.2788 31.3632 33.2689C31.3632 32.248 30.9304 31.4046 30.0648 30.7387C29.6098 30.3947 28.5167 29.8287 26.7855 29.0408C25.0543 28.2418 23.8058 27.4095 23.0401 26.5439C22.2855 25.6672 21.9082 24.4243 21.9082 22.8152C21.9082 21.9829 22.1135 21.1561 22.5241 20.3349C23.4119 18.5704 24.8601 17.3108 26.8687 16.5562C27.8786 16.1789 28.8885 15.9902 29.8983 15.9902H30.997C32.6727 15.9902 34.1709 16.2899 35.4914 16.8891Z" fill="#F5F5FE"/>
<path d="M48.2898 25.9459C48.1197 25.7515 47.9252 25.557 47.7551 25.3868C46.0537 23.7094 44.328 22.0321 42.6265 20.3547C42.262 20.0144 41.9217 19.6497 41.4599 19.4309C40.9981 19.2122 40.4633 19.1392 40.0258 19.3823C39.5883 19.6254 39.3452 20.1602 39.3452 20.695C39.3452 21.2298 39.5397 21.6918 39.8071 22.1536C40.8522 24.0011 42.7481 25.2167 44.0363 26.9183C44.328 27.3073 44.5953 27.7449 44.5224 28.2067C44.4738 28.5471 44.2551 28.8631 44.012 29.1305C42.4807 31.0024 40.7793 32.704 38.9078 34.2598C38.373 34.6974 37.7654 35.3052 37.9355 35.9616C38.057 36.4477 38.5918 36.7152 39.0779 36.7638C40.8765 36.861 42.8453 35.4754 44.012 34.2842C44.7898 33.5062 45.4947 32.6554 46.2482 31.8532C46.953 31.0996 47.7794 30.4676 48.4357 29.6896C48.8975 29.1062 49.2378 28.3769 49.1649 27.6476C49.1162 26.9669 48.7274 26.4321 48.2898 25.9459Z" fill="#C1C1FB"/>
</svg>
